<mxfile host="app.diagrams.net" modified="2022-11-15T06:33:39.063Z" agent="5.0 (Macintosh; Intel Mac OS X 10_15_7) AppleWebKit/605.1.15 (KHTML, like Gecko) Version/16.1 Safari/605.1.15" etag="2zahCLVk0z1M2_TjiQqO" version="20.5.3" type="github">
  <diagram id="KG0RKK3lwUgz6thb9xZj" name="Page-1">
    <mxGraphModel dx="-708" dy="645" grid="1" gridSize="10" guides="1" tooltips="1" connect="1" arrows="1" fold="1" page="1" pageScale="1" pageWidth="827" pageHeight="1169" background="#F1FAEE" math="0" shadow="0">
      <root>
        <mxCell id="0" />
        <mxCell id="1" parent="0" />
        <mxCell id="O_0LK0M-IAh8ZTSY1Pzg-2" value="" style="rounded=1;whiteSpace=wrap;html=1;dashed=1;fillColor=none;strokeColor=#457B9D;fontColor=#1D3557;" vertex="1" parent="1">
          <mxGeometry x="1680" y="130" width="460" height="392.5" as="geometry" />
        </mxCell>
        <mxCell id="O_0LK0M-IAh8ZTSY1Pzg-1" value="" style="html=1;dashed=0;whitespace=wrap;shape=mxgraph.dfd.loop;labelBackgroundColor=none;strokeColor=#457B9D;fontColor=#1D3557;fillColor=none;sketch=0;movable=1;resizable=1;rotatable=1;deletable=1;editable=1;connectable=1;rounded=1;" vertex="1" parent="1">
          <mxGeometry x="1680" y="140" width="460" height="375" as="geometry" />
        </mxCell>
        <mxCell id="O_0LK0M-IAh8ZTSY1Pzg-3" style="edgeStyle=orthogonalEdgeStyle;rounded=1;orthogonalLoop=1;jettySize=auto;html=1;exitX=0.5;exitY=1;exitDx=0;exitDy=0;entryX=0.5;entryY=0;entryDx=0;entryDy=0;strokeColor=#457B9D;fontColor=#1D3557;startArrow=none;startFill=0;fillColor=#A8DADC;labelBackgroundColor=#F1FAEE;" edge="1" parent="1" source="O_0LK0M-IAh8ZTSY1Pzg-4">
          <mxGeometry relative="1" as="geometry">
            <mxPoint x="1660" y="280" as="targetPoint" />
          </mxGeometry>
        </mxCell>
        <mxCell id="O_0LK0M-IAh8ZTSY1Pzg-5" value="No" style="edgeStyle=orthogonalEdgeStyle;rounded=1;orthogonalLoop=1;jettySize=auto;html=1;exitX=0;exitY=0.5;exitDx=0;exitDy=0;exitPerimeter=0;entryX=1;entryY=0.5;entryDx=0;entryDy=0;strokeColor=#457B9D;fontColor=#1D3557;startArrow=none;startFill=0;fillColor=#A8DADC;labelBackgroundColor=#F1FAEE;" edge="1" parent="1" source="O_0LK0M-IAh8ZTSY1Pzg-7" target="O_0LK0M-IAh8ZTSY1Pzg-25">
          <mxGeometry relative="1" as="geometry" />
        </mxCell>
        <mxCell id="O_0LK0M-IAh8ZTSY1Pzg-6" value="Yes" style="edgeStyle=orthogonalEdgeStyle;rounded=1;orthogonalLoop=1;jettySize=auto;html=1;exitX=0.5;exitY=0;exitDx=0;exitDy=0;exitPerimeter=0;entryX=1;entryY=0.5;entryDx=0;entryDy=0;strokeColor=#457B9D;fontColor=#1D3557;startArrow=none;startFill=0;fillColor=#A8DADC;labelBackgroundColor=#F1FAEE;" edge="1" parent="1" source="O_0LK0M-IAh8ZTSY1Pzg-7" target="O_0LK0M-IAh8ZTSY1Pzg-27">
          <mxGeometry relative="1" as="geometry">
            <Array as="points">
              <mxPoint x="2040" y="165" />
            </Array>
          </mxGeometry>
        </mxCell>
        <mxCell id="O_0LK0M-IAh8ZTSY1Pzg-7" value="Is turbidity &amp;gt; 30 NTU" style="strokeWidth=2;html=1;shape=mxgraph.flowchart.decision;whiteSpace=wrap;fillColor=#A8DADC;strokeColor=#457B9D;fontColor=#1D3557;rounded=1;" vertex="1" parent="1">
          <mxGeometry x="1990" y="180" width="100" height="100" as="geometry" />
        </mxCell>
        <mxCell id="O_0LK0M-IAh8ZTSY1Pzg-8" style="edgeStyle=orthogonalEdgeStyle;rounded=1;orthogonalLoop=1;jettySize=auto;html=1;exitX=0;exitY=0.5;exitDx=0;exitDy=0;entryX=1;entryY=0.5;entryDx=0;entryDy=0;strokeColor=#457B9D;fontColor=#1D3557;startArrow=none;startFill=0;fillColor=#A8DADC;labelBackgroundColor=#F1FAEE;" edge="1" parent="1" source="O_0LK0M-IAh8ZTSY1Pzg-9" target="O_0LK0M-IAh8ZTSY1Pzg-15">
          <mxGeometry relative="1" as="geometry" />
        </mxCell>
        <mxCell id="O_0LK0M-IAh8ZTSY1Pzg-9" value="AIN1" style="shape=parallelogram;html=1;strokeWidth=2;perimeter=parallelogramPerimeter;whiteSpace=wrap;rounded=1;arcSize=12;size=0.23;fillColor=#A8DADC;strokeColor=#457B9D;fontColor=#1D3557;" vertex="1" parent="1">
          <mxGeometry x="1908.75" y="427.5" width="132.5" height="55" as="geometry" />
        </mxCell>
        <mxCell id="O_0LK0M-IAh8ZTSY1Pzg-10" style="edgeStyle=orthogonalEdgeStyle;rounded=1;orthogonalLoop=1;jettySize=auto;html=1;exitX=0.5;exitY=0;exitDx=0;exitDy=0;entryX=0.5;entryY=1;entryDx=0;entryDy=0;strokeColor=#457B9D;fontColor=#1D3557;startArrow=none;startFill=0;fillColor=#A8DADC;labelBackgroundColor=#F1FAEE;" edge="1" parent="1" source="O_0LK0M-IAh8ZTSY1Pzg-11" target="O_0LK0M-IAh8ZTSY1Pzg-9">
          <mxGeometry relative="1" as="geometry" />
        </mxCell>
        <mxCell id="O_0LK0M-IAh8ZTSY1Pzg-11" value="Turbidity Sensor" style="shape=parallelogram;html=1;strokeWidth=2;perimeter=parallelogramPerimeter;whiteSpace=wrap;rounded=1;arcSize=12;size=0.23;fillColor=#A8DADC;strokeColor=#457B9D;fontColor=#1D3557;" vertex="1" parent="1">
          <mxGeometry x="1905" y="550" width="140" height="60" as="geometry" />
        </mxCell>
        <mxCell id="O_0LK0M-IAh8ZTSY1Pzg-12" style="edgeStyle=orthogonalEdgeStyle;rounded=1;orthogonalLoop=1;jettySize=auto;html=1;exitX=0.5;exitY=1;exitDx=0;exitDy=0;exitPerimeter=0;labelBackgroundColor=#F1FAEE;strokeColor=#457B9D;fontColor=#1D3557;" edge="1" parent="1" source="O_0LK0M-IAh8ZTSY1Pzg-7" target="O_0LK0M-IAh8ZTSY1Pzg-7">
          <mxGeometry relative="1" as="geometry" />
        </mxCell>
        <mxCell id="O_0LK0M-IAh8ZTSY1Pzg-13" value="&lt;font style=&quot;font-size: 21px;&quot;&gt;Wisbase 19007&lt;/font&gt;" style="text;html=1;align=center;verticalAlign=middle;resizable=0;points=[];autosize=1;strokeColor=none;fillColor=none;fontColor=#1D3557;rounded=1;" vertex="1" parent="1">
          <mxGeometry x="1825" y="90" width="170" height="40" as="geometry" />
        </mxCell>
        <mxCell id="O_0LK0M-IAh8ZTSY1Pzg-14" style="edgeStyle=orthogonalEdgeStyle;rounded=1;orthogonalLoop=1;jettySize=auto;html=1;exitX=0.5;exitY=0;exitDx=0;exitDy=0;entryX=0.5;entryY=1;entryDx=0;entryDy=0;entryPerimeter=0;strokeColor=#457B9D;fontColor=#1D3557;startArrow=none;startFill=0;fillColor=#A8DADC;labelBackgroundColor=#F1FAEE;" edge="1" parent="1" source="O_0LK0M-IAh8ZTSY1Pzg-15" target="O_0LK0M-IAh8ZTSY1Pzg-18">
          <mxGeometry relative="1" as="geometry" />
        </mxCell>
        <mxCell id="O_0LK0M-IAh8ZTSY1Pzg-15" value="Convert Analoge Signal to NTU&amp;nbsp;" style="rounded=1;whiteSpace=wrap;html=1;absoluteArcSize=1;arcSize=14;strokeWidth=2;fillColor=#A8DADC;strokeColor=#457B9D;fontColor=#1D3557;" vertex="1" parent="1">
          <mxGeometry x="1750" y="405" width="100" height="100" as="geometry" />
        </mxCell>
        <mxCell id="O_0LK0M-IAh8ZTSY1Pzg-17" style="edgeStyle=orthogonalEdgeStyle;rounded=0;orthogonalLoop=1;jettySize=auto;html=1;exitX=0.78;exitY=0.5;exitDx=0;exitDy=0;exitPerimeter=0;entryX=0;entryY=0.5;entryDx=0;entryDy=0;strokeColor=#457B9D;fontSize=12;fontColor=#1D3557;fillColor=#A8DADC;labelBackgroundColor=#F1FAEE;" edge="1" parent="1" source="O_0LK0M-IAh8ZTSY1Pzg-18" target="O_0LK0M-IAh8ZTSY1Pzg-29">
          <mxGeometry relative="1" as="geometry" />
        </mxCell>
        <mxCell id="O_0LK0M-IAh8ZTSY1Pzg-18" value="&lt;span style=&quot;caret-color: rgb(29, 53, 87); color: rgb(29, 53, 87); font-family: Helvetica; font-size: 12px; font-style: normal; font-variant-caps: normal; font-weight: 400; letter-spacing: normal; text-align: center; text-indent: 0px; text-transform: none; word-spacing: 0px; -webkit-text-stroke-width: 0px; text-decoration: none; float: none; display: inline !important;&quot;&gt;Take Measurement&amp;nbsp;&lt;/span&gt;" style="strokeWidth=2;html=1;shape=mxgraph.flowchart.extract_or_measurement;whiteSpace=wrap;strokeColor=#457B9D;fontColor=#1D3557;fillColor=#A8DADC;labelBackgroundColor=none;rounded=1;" vertex="1" parent="1">
          <mxGeometry x="1752.5" y="320" width="97.5" height="60" as="geometry" />
        </mxCell>
        <mxCell id="O_0LK0M-IAh8ZTSY1Pzg-19" style="edgeStyle=orthogonalEdgeStyle;rounded=1;orthogonalLoop=1;jettySize=auto;html=1;exitX=0.5;exitY=1;exitDx=0;exitDy=0;entryX=0.5;entryY=0;entryDx=0;entryDy=0;strokeColor=#457B9D;fontColor=#1D3557;startArrow=none;startFill=0;fillColor=#A8DADC;labelBackgroundColor=#F1FAEE;" edge="1" parent="1" source="O_0LK0M-IAh8ZTSY1Pzg-20">
          <mxGeometry relative="1" as="geometry">
            <mxPoint x="1660" y="420" as="targetPoint" />
          </mxGeometry>
        </mxCell>
        <mxCell id="O_0LK0M-IAh8ZTSY1Pzg-22" style="edgeStyle=orthogonalEdgeStyle;rounded=1;orthogonalLoop=1;jettySize=auto;html=1;exitX=1;exitY=0.5;exitDx=0;exitDy=0;entryX=0;entryY=0.5;entryDx=0;entryDy=0;strokeColor=#457B9D;fontColor=#1D3557;startArrow=none;startFill=0;fillColor=#A8DADC;labelBackgroundColor=#F1FAEE;" edge="1" parent="1" source="O_0LK0M-IAh8ZTSY1Pzg-23">
          <mxGeometry relative="1" as="geometry">
            <mxPoint x="1610" y="330" as="targetPoint" />
          </mxGeometry>
        </mxCell>
        <mxCell id="O_0LK0M-IAh8ZTSY1Pzg-24" style="edgeStyle=orthogonalEdgeStyle;rounded=0;orthogonalLoop=1;jettySize=auto;html=1;exitX=0;exitY=0.5;exitDx=0;exitDy=0;entryX=0.5;entryY=0;entryDx=0;entryDy=0;strokeColor=#457B9D;fontSize=12;fontColor=#1D3557;fillColor=#A8DADC;labelBackgroundColor=#F1FAEE;" edge="1" parent="1" source="O_0LK0M-IAh8ZTSY1Pzg-25" target="O_0LK0M-IAh8ZTSY1Pzg-31">
          <mxGeometry relative="1" as="geometry" />
        </mxCell>
        <mxCell id="O_0LK0M-IAh8ZTSY1Pzg-25" value="Wait 3 Hours" style="html=1;dashed=0;whitespace=wrap;labelBackgroundColor=none;sketch=0;strokeColor=#457B9D;fontColor=#1D3557;fillColor=#A8DADC;rounded=1;" vertex="1" parent="1">
          <mxGeometry x="1850" y="205" width="100" height="50" as="geometry" />
        </mxCell>
        <mxCell id="O_0LK0M-IAh8ZTSY1Pzg-26" style="edgeStyle=orthogonalEdgeStyle;rounded=0;orthogonalLoop=1;jettySize=auto;html=1;exitX=0;exitY=0.5;exitDx=0;exitDy=0;entryX=0.5;entryY=0;entryDx=0;entryDy=0;strokeColor=#457B9D;fontSize=12;fontColor=#1D3557;fillColor=#A8DADC;labelBackgroundColor=#F1FAEE;" edge="1" parent="1" source="O_0LK0M-IAh8ZTSY1Pzg-27" target="O_0LK0M-IAh8ZTSY1Pzg-31">
          <mxGeometry relative="1" as="geometry" />
        </mxCell>
        <mxCell id="O_0LK0M-IAh8ZTSY1Pzg-27" value="Wait 20 Minutes" style="html=1;dashed=0;whitespace=wrap;labelBackgroundColor=none;sketch=0;strokeColor=#457B9D;fontColor=#1D3557;fillColor=#A8DADC;rounded=1;" vertex="1" parent="1">
          <mxGeometry x="1850" y="140" width="100" height="50" as="geometry" />
        </mxCell>
        <mxCell id="O_0LK0M-IAh8ZTSY1Pzg-28" style="edgeStyle=orthogonalEdgeStyle;rounded=0;orthogonalLoop=1;jettySize=auto;html=1;exitX=1;exitY=0.5;exitDx=0;exitDy=0;entryX=0.5;entryY=1;entryDx=0;entryDy=0;entryPerimeter=0;strokeColor=#457B9D;fontSize=12;fontColor=#1D3557;fillColor=#A8DADC;labelBackgroundColor=#F1FAEE;" edge="1" parent="1" source="O_0LK0M-IAh8ZTSY1Pzg-29" target="O_0LK0M-IAh8ZTSY1Pzg-7">
          <mxGeometry relative="1" as="geometry" />
        </mxCell>
        <mxCell id="O_0LK0M-IAh8ZTSY1Pzg-29" value="Turn off Sensor" style="html=1;dashed=0;whitespace=wrap;labelBackgroundColor=none;sketch=0;strokeColor=#457B9D;fontColor=#1D3557;fillColor=#A8DADC;rounded=1;" vertex="1" parent="1">
          <mxGeometry x="1878.75" y="325" width="100" height="50" as="geometry" />
        </mxCell>
        <mxCell id="O_0LK0M-IAh8ZTSY1Pzg-30" style="edgeStyle=orthogonalEdgeStyle;rounded=0;orthogonalLoop=1;jettySize=auto;html=1;exitX=0.5;exitY=1;exitDx=0;exitDy=0;entryX=0.5;entryY=0;entryDx=0;entryDy=0;entryPerimeter=0;strokeColor=#457B9D;fontSize=12;fontColor=#1D3557;fillColor=#A8DADC;labelBackgroundColor=#F1FAEE;" edge="1" parent="1" source="O_0LK0M-IAh8ZTSY1Pzg-31" target="O_0LK0M-IAh8ZTSY1Pzg-18">
          <mxGeometry relative="1" as="geometry" />
        </mxCell>
        <mxCell id="O_0LK0M-IAh8ZTSY1Pzg-31" value="Turn On Sensor" style="html=1;dashed=0;whitespace=wrap;labelBackgroundColor=none;sketch=0;strokeColor=#457B9D;fontColor=#1D3557;fillColor=#A8DADC;rounded=1;" vertex="1" parent="1">
          <mxGeometry x="1752.5" y="255" width="100" height="50" as="geometry" />
        </mxCell>
      </root>
    </mxGraphModel>
  </diagram>
</mxfile>
